<svg width="163" height="122" viewBox="0 0 163 122" fill="none" xmlns="http://www.w3.org/2000/svg">
<g filter="url(#filter0_d_1976_25428)">
<rect width="162.4" height="133.557" transform="translate(0 -5.77881)" fill="white"/>
<path d="M85.4402 20.2212L89.1002 24.2212H97.2002V48.2212H65.2002V24.2212H73.3002L76.9602 20.2212H85.4402ZM87.2002 16.2212H75.2002L71.5402 20.2212H65.2002C63.0002 20.2212 61.2002 22.0212 61.2002 24.2212V48.2212C61.2002 50.4212 63.0002 52.2212 65.2002 52.2212H97.2002C99.4002 52.2212 101.2 50.4212 101.2 48.2212V24.2212C101.2 22.0212 99.4002 20.2212 97.2002 20.2212H90.8602L87.2002 16.2212ZM81.2002 30.2212C84.5002 30.2212 87.2002 32.9212 87.2002 36.2212C87.2002 39.5212 84.5002 42.2212 81.2002 42.2212C77.9002 42.2212 75.2002 39.5212 75.2002 36.2212C75.2002 32.9212 77.9002 30.2212 81.2002 30.2212ZM81.2002 26.2212C75.6802 26.2212 71.2002 30.7012 71.2002 36.2212C71.2002 41.7412 75.6802 46.2212 81.2002 46.2212C86.7202 46.2212 91.2002 41.7412 91.2002 36.2212C91.2002 30.7012 86.7202 26.2212 81.2002 26.2212Z" fill="#7C848A"/>
<path d="M26.0919 88.4012C25.1079 88.4012 24.1659 88.2632 23.2659 87.9872C22.3659 87.6992 21.6519 87.3332 21.1239 86.8892L21.9339 85.0712C22.4379 85.4672 23.0619 85.7972 23.8059 86.0612C24.5499 86.3252 25.3119 86.4572 26.0919 86.4572C26.7519 86.4572 27.2859 86.3852 27.6939 86.2412C28.1019 86.0972 28.4019 85.9052 28.5939 85.6652C28.7859 85.4132 28.8819 85.1312 28.8819 84.8192C28.8819 84.4352 28.7439 84.1292 28.4679 83.9012C28.1919 83.6612 27.8319 83.4752 27.3879 83.3432C26.9559 83.1992 26.4699 83.0672 25.9299 82.9472C25.4019 82.8272 24.8679 82.6892 24.3279 82.5332C23.7999 82.3652 23.3139 82.1552 22.8699 81.9032C22.4379 81.6392 22.0839 81.2912 21.8079 80.8592C21.5319 80.4272 21.3939 79.8752 21.3939 79.2032C21.3939 78.5192 21.5739 77.8952 21.9339 77.3312C22.3059 76.7552 22.8639 76.2992 23.6079 75.9632C24.3639 75.6152 25.3179 75.4412 26.4699 75.4412C27.2259 75.4412 27.9759 75.5372 28.7199 75.7292C29.4639 75.9212 30.1119 76.1972 30.6639 76.5572L29.9259 78.3752C29.3619 78.0392 28.7799 77.7932 28.1799 77.6372C27.5799 77.4692 27.0039 77.3852 26.4519 77.3852C25.8039 77.3852 25.2759 77.4632 24.8679 77.6192C24.4719 77.7752 24.1779 77.9792 23.9859 78.2312C23.8059 78.4832 23.7159 78.7712 23.7159 79.0952C23.7159 79.4792 23.8479 79.7912 24.1119 80.0312C24.3879 80.2592 24.7419 80.4392 25.1739 80.5712C25.6179 80.7032 26.1099 80.8352 26.6499 80.9672C27.1899 81.0872 27.7239 81.2252 28.2519 81.3812C28.7919 81.5372 29.2779 81.7412 29.7099 81.9932C30.1539 82.2452 30.5079 82.5872 30.7719 83.0192C31.0479 83.4512 31.1859 83.9972 31.1859 84.6572C31.1859 85.3292 30.9999 85.9532 30.6279 86.5292C30.2679 87.0932 29.7099 87.5492 28.9539 87.8972C28.1979 88.2332 27.2439 88.4012 26.0919 88.4012ZM35.6663 80.8592H41.9303V82.7852H35.6663V80.8592ZM35.8463 86.2592H42.9563V88.2212H33.5063V75.6212H42.7043V77.5832H35.8463V86.2592ZM45.5648 88.2212V75.6212H47.9048V86.2412H54.4928V88.2212H45.5648ZM58.5002 80.8592H64.7642V82.7852H58.5002V80.8592ZM58.6802 86.2592H65.7902V88.2212H56.3402V75.6212H65.5382V77.5832H58.6802V86.2592ZM74.2308 88.4012C73.2708 88.4012 72.3768 88.2452 71.5488 87.9332C70.7328 87.6092 70.0188 87.1592 69.4068 86.5832C68.8068 85.9952 68.3388 85.3052 68.0028 84.5132C67.6668 83.7212 67.4988 82.8572 67.4988 81.9212C67.4988 80.9852 67.6668 80.1212 68.0028 79.3292C68.3388 78.5372 68.8128 77.8532 69.4248 77.2772C70.0368 76.6892 70.7508 76.2392 71.5668 75.9272C72.3828 75.6032 73.2768 75.4412 74.2488 75.4412C75.2808 75.4412 76.2228 75.6212 77.0748 75.9812C77.9268 76.3292 78.6468 76.8512 79.2348 77.5472L77.7228 78.9692C77.2668 78.4772 76.7568 78.1112 76.1928 77.8712C75.6288 77.6192 75.0168 77.4932 74.3568 77.4932C73.6968 77.4932 73.0908 77.6012 72.5388 77.8172C71.9988 78.0332 71.5248 78.3392 71.1168 78.7352C70.7208 79.1312 70.4088 79.5992 70.1808 80.1392C69.9648 80.6792 69.8568 81.2732 69.8568 81.9212C69.8568 82.5692 69.9648 83.1632 70.1808 83.7032C70.4088 84.2432 70.7208 84.7112 71.1168 85.1072C71.5248 85.5032 71.9988 85.8092 72.5388 86.0252C73.0908 86.2412 73.6968 86.3492 74.3568 86.3492C75.0168 86.3492 75.6288 86.2292 76.1928 85.9892C76.7568 85.7372 77.2668 85.3592 77.7228 84.8552L79.2348 86.2952C78.6468 86.9792 77.9268 87.5012 77.0748 87.8612C76.2228 88.2212 75.2748 88.4012 74.2308 88.4012ZM81.477 88.2212V75.6212H83.817V88.2212H81.477ZM93.129 88.4012C92.145 88.4012 91.239 88.2392 90.411 87.9152C89.583 87.5912 88.863 87.1412 88.251 86.5652C87.639 85.9772 87.165 85.2932 86.829 84.5132C86.493 83.7212 86.325 82.8572 86.325 81.9212C86.325 80.9852 86.493 80.1272 86.829 79.3472C87.165 78.5552 87.639 77.8712 88.251 77.2952C88.863 76.7072 89.583 76.2512 90.411 75.9272C91.239 75.6032 92.139 75.4412 93.111 75.4412C94.095 75.4412 94.995 75.6032 95.811 75.9272C96.639 76.2512 97.359 76.7072 97.971 77.2952C98.583 77.8712 99.057 78.5552 99.393 79.3472C99.729 80.1272 99.897 80.9852 99.897 81.9212C99.897 82.8572 99.729 83.7212 99.393 84.5132C99.057 85.3052 98.583 85.9892 97.971 86.5652C97.359 87.1412 96.639 87.5912 95.811 87.9152C94.995 88.2392 94.101 88.4012 93.129 88.4012ZM93.111 86.3492C93.747 86.3492 94.335 86.2412 94.875 86.0252C95.415 85.8092 95.883 85.5032 96.279 85.1072C96.675 84.6992 96.981 84.2312 97.197 83.7032C97.425 83.1632 97.539 82.5692 97.539 81.9212C97.539 81.2732 97.425 80.6852 97.197 80.1572C96.981 79.6172 96.675 79.1492 96.279 78.7532C95.883 78.3452 95.415 78.0332 94.875 77.8172C94.335 77.6012 93.747 77.4932 93.111 77.4932C92.475 77.4932 91.887 77.6012 91.347 77.8172C90.819 78.0332 90.351 78.3452 89.943 78.7532C89.547 79.1492 89.235 79.6172 89.007 80.1572C88.791 80.6852 88.683 81.2732 88.683 81.9212C88.683 82.5572 88.791 83.1452 89.007 83.6852C89.235 84.2252 89.547 84.6992 89.943 85.1072C90.339 85.5032 90.807 85.8092 91.347 86.0252C91.887 86.2412 92.475 86.3492 93.111 86.3492ZM102.377 88.2212V75.6212H104.303L112.205 85.3232H111.251V75.6212H113.573V88.2212H111.647L103.745 78.5192H104.699V88.2212H102.377ZM115.168 88.2212L120.838 75.6212H123.142L128.83 88.2212H126.382L121.504 76.8632H122.44L117.58 88.2212H115.168ZM117.778 85.3052L118.408 83.4692H125.212L125.842 85.3052H117.778ZM130.432 88.2212V75.6212H135.616C136.732 75.6212 137.686 75.8012 138.478 76.1612C139.282 76.5212 139.9 77.0372 140.332 77.7092C140.764 78.3812 140.98 79.1792 140.98 80.1032C140.98 81.0272 140.764 81.8252 140.332 82.4972C139.9 83.1572 139.282 83.6672 138.478 84.0272C137.686 84.3752 136.732 84.5492 135.616 84.5492H131.728L132.772 83.4872V88.2212H130.432ZM138.676 88.2212L135.49 83.6492H137.992L141.196 88.2212H138.676ZM132.772 83.7392L131.728 82.6232H135.508C136.54 82.6232 137.314 82.4012 137.83 81.9572C138.358 81.5132 138.622 80.8952 138.622 80.1032C138.622 79.2992 138.358 78.6812 137.83 78.2492C137.314 77.8172 136.54 77.6012 135.508 77.6012H131.728L132.772 76.4492V83.7392ZM43.1918 110.221V97.6212H45.5318V110.221H43.1918ZM48.9398 110.221V97.6212H50.8658L56.3738 106.819H55.3658L60.7838 97.6212H62.7098L62.7278 110.221H60.5138L60.4958 101.095H60.9638L56.3558 108.781H55.3118L50.6318 101.095H51.1718V110.221H48.9398ZM64.3493 110.221L70.0193 97.6212H72.3233L78.0113 110.221H75.5633L70.6853 98.8632H71.6213L66.7613 110.221H64.3493ZM66.9593 107.305L67.5893 105.469H74.3933L75.0233 107.305H66.9593ZM85.3239 110.401C84.3399 110.401 83.4339 110.245 82.6059 109.933C81.7899 109.609 81.0759 109.159 80.4639 108.583C79.8519 107.995 79.3779 107.305 79.0419 106.513C78.7059 105.721 78.5379 104.857 78.5379 103.921C78.5379 102.985 78.7059 102.121 79.0419 101.329C79.3779 100.537 79.8519 99.8532 80.4639 99.2772C81.0879 98.6892 81.8139 98.2392 82.6419 97.9272C83.4699 97.6032 84.3759 97.4412 85.3599 97.4412C86.4279 97.4412 87.3879 97.6152 88.2399 97.9632C89.1039 98.3112 89.8299 98.8212 90.4179 99.4932L88.9419 100.933C88.4499 100.441 87.9159 100.081 87.3399 99.8532C86.7759 99.6132 86.1519 99.4932 85.4679 99.4932C84.8079 99.4932 84.1959 99.6012 83.6319 99.8172C83.0679 100.033 82.5819 100.339 82.1739 100.735C81.7659 101.131 81.4479 101.599 81.2199 102.139C81.0039 102.679 80.8959 103.273 80.8959 103.921C80.8959 104.557 81.0039 105.145 81.2199 105.685C81.4479 106.225 81.7659 106.699 82.1739 107.107C82.5819 107.503 83.0619 107.809 83.6139 108.025C84.1659 108.241 84.7779 108.349 85.4499 108.349C86.0739 108.349 86.6739 108.253 87.2499 108.061C87.8379 107.857 88.3959 107.521 88.9239 107.053L90.2559 108.799C89.5959 109.327 88.8279 109.729 87.9519 110.005C87.0879 110.269 86.2119 110.401 85.3239 110.401ZM88.0419 108.493V103.777H90.2559V108.799L88.0419 108.493ZM95.5022 102.859H101.766V104.785H95.5022V102.859ZM95.6822 108.259H102.792V110.221H93.3422V97.6212H102.54V99.5832H95.6822V108.259ZM105.401 110.221V97.6212H107.327L112.835 106.819H111.827L117.245 97.6212H119.171L119.189 110.221H116.975L116.957 101.095H117.425L112.817 108.781H111.773L107.093 101.095H107.633V110.221H105.401Z" fill="#7C848A"/>
</g>
<defs>
<filter id="filter0_d_1976_25428" x="-4" y="-5.77881" width="170.4" height="141.557" filterUnits="userSpaceOnUse" color-interpolation-filters="sRGB">
<feFlood flood-opacity="0" result="BackgroundImageFix"/>
<feColorMatrix in="SourceAlpha" type="matrix" values="0 0 0 0 0 0 0 0 0 0 0 0 0 0 0 0 0 0 127 0" result="hardAlpha"/>
<feOffset dy="4"/>
<feGaussianBlur stdDeviation="2"/>
<feComposite in2="hardAlpha" operator="out"/>
<feColorMatrix type="matrix" values="0 0 0 0 0 0 0 0 0 0 0 0 0 0 0 0 0 0 0.25 0"/>
<feBlend mode="normal" in2="BackgroundImageFix" result="effect1_dropShadow_1976_25428"/>
<feBlend mode="normal" in="SourceGraphic" in2="effect1_dropShadow_1976_25428" result="shape"/>
</filter>
</defs>
</svg>